<svg width="436" height="75" viewBox="0 0 436 75" xmlns="http://www.w3.org/2000/svg">
    <g fill-rule="nonzero" fill="none">
        <path d="M232.297 24.105V52.71c0 6.528-3.083 10.907-14.5 10.907v-7.866c2.373-.121 3.427-1.013 3.427-3.264V24.105h11.073zm17.278-.892c7.645 0 12.775 2.534 13.445 9.73h-9.957a3 3 0 0 0-3.306-2.756c-2.028 0-2.92.892-2.92 2.027 0 1.135 1.338 1.906 4.603 2.25 8.497 1.014 12.431 3.021 12.431 9.387 0 7.237-5.516 10.34-13.83 10.34s-13.688-3.508-13.85-10.239h10.139a3.142 3.142 0 0 0 3.65 3.041c2.028 0 3.083-.851 3.083-2.027 0-1.176-1.238-2.027-5.172-2.473-7.929-.892-11.396-3.041-11.396-9.326 0-6.751 5.9-9.954 13.08-9.954zm-64.508-.061c8.274 0 15.29 4.724 15.29 15.286v2.696h-20.34a5.27 5.27 0 0 0 5.516 5.494c3.083 0 4.28-1.46 4.604-3.142h10.342c-.892 6.75-6.084 10.684-15.351 10.684-9.268 0-16.284-5.393-16.284-15.104v-.446c0-9.569 7.3-15.468 16.223-15.468zm-39.22.851v17.354c0 2.98 1.115 4.5 3.711 4.5s4.38-1.62 4.38-5.108V24.003h11.073V53.4h-11.073v-4.562a9.532 9.532 0 0 1-9.328 5.291c-5.617 0-9.835-3.446-9.835-10.846v-19.28h11.072zm63.818 17.902a6.083 6.083 0 1 1 0 12.164 6.083 6.083 0 1 1 0-12.164zm-102.45-28.687 7.483 26.903 7.463-26.903h11.924L121.107 53.4h-14.399L93.446 13.218h13.77zm77.913 17.07c-2.981 0-4.604 1.744-5.05 5.068h9.673c-.121-3.162-1.642-5.068-4.623-5.068zm45.824-19.06a6.08 6.08 0 0 1-4.09 10.566 5.68 5.68 0 0 1-6.084-5.575 6.085 6.085 0 0 1 10.173-4.99z" fill="#FF5323"/>
        <path d="M388.851 27.957v-4.055h11.073v26.963c0 8.758-5.8 13.421-16.751 13.421-10.038 0-14.865-4.156-15.655-11.11h10.95c.406 1.785 1.42 3.467 4.847 3.467a5.01 5.01 0 0 0 5.617-5.615v-4.542a9.836 9.836 0 0 1-8.943 5.17c-6.692 0-12.31-4.845-12.31-13.948v-.446c0-8.819 5.557-14.191 12.168-14.191a9.35 9.35 0 0 1 9.004 4.886zm31.21-4.805c8.274 0 15.29 4.724 15.29 15.286v2.696h-20.34a5.27 5.27 0 0 0 5.516 5.494c3.082 0 4.279-1.46 4.603-3.142h10.343c-.893 6.75-6.084 10.684-15.352 10.684-9.267 0-16.284-5.393-16.284-15.104v-.446c0-9.569 7.3-15.468 16.224-15.468zm-95.393.06c9.288 0 16.223 5.677 16.223 15.125v.446c0 9.67-7.199 15.346-16.365 15.346-9.166 0-16.284-5.473-16.284-15.063v-.446c0-9.569 7.138-15.407 16.426-15.407zm-18.048-9.994v9.833h-15.068v7.46h12.168v9.387h-12.168V53.4h-12.755V13.218h27.823zm58.647 10.38v10.34c-6.084-.325-9.45 1.702-9.45 5.92V53.4h-11.073V24.003h11.073v5.96a9.227 9.227 0 0 1 9.45-6.365zm-40.6 7.846c-3.426 0-5.231 2.31-5.231 6.913v.446c0 4.784 1.683 7.258 5.232 7.258 3.549 0 4.948-2.555 4.948-7.218h.101v-.324c0-4.602-1.622-7.075-5.05-7.075zm59.52-.081c-3.326 0-5.171 2.31-5.171 6.082v.446c0 3.588 1.805 5.96 5.171 5.96 3.366 0 5.171-2.433 5.171-6.143v-.385c0-3.609-1.845-5.96-5.171-5.96zm35.934-1.075c-2.98 0-4.603 1.744-5.049 5.068h9.673c-.122-3.162-1.642-5.068-4.624-5.068z" fill="#FDB92C"/>
        <path fill="#FF5323" d="M37.902 35.478h3.325l8.376-14.414H29.465l-3.873-6.63h27.843L61.811 0H0l12.208 21.064H0l8.436 14.414h12.147L43.438 74.91V44.946z"/>
        <path fill="#FDB92C" d="M43.438 44.946v29.963L86.876 0h-17.36z"/>
    </g>
</svg>
